<?xml version="1.0" standalone="no"?>
<!DOCTYPE svg PUBLIC "-//W3C//DTD SVG 20010904//EN"
 "http://www.w3.org/TR/2001/REC-SVG-20010904/DTD/svg10.dtd">
<svg version="1.0" xmlns="http://www.w3.org/2000/svg"
 width="1080.000000pt" height="1080.000000pt" viewBox="0 0 1080.000000 1080.000000"
 preserveAspectRatio="xMidYMid meet">

<g transform="translate(0.000000,1080.000000) scale(0.100000,-0.100000)"
fill="#000000" stroke="none">
<path d="M2991 7931 c-18 -18 -21 -33 -21 -100 0 -74 2 -81 26 -100 20 -15 41
-21 80 -21 118 0 375 -49 556 -106 308 -98 620 -273 845 -476 61 -55 89 -52
158 16 83 81 77 103 -53 208 -42 34 -79 65 -82 68 -8 10 -181 125 -253 169
-324 197 -761 335 -1126 357 -102 6 -109 6 -130 -15z"/>
<path d="M1605 7609 c-444 -254 -808 -639 -1041 -1102 -100 -200 -98 -220 19
-262 97 -35 107 -29 166 99 112 238 272 466 466 661 171 173 285 262 499 391
118 71 124 84 81 181 -46 101 -64 104 -190 32z"/>
<path d="M2992 7499 c-19 -19 -22 -35 -22 -100 0 -72 2 -79 26 -98 17 -13 41
-21 67 -21 54 0 225 -27 318 -51 272 -68 549 -208 770 -389 41 -33 84 -60 96
-60 23 0 113 80 132 117 17 34 -1 65 -76 127 -326 274 -772 456 -1209 492 -76
6 -82 5 -102 -17z"/>
<path d="M1806 7229 c-367 -212 -686 -557 -872 -945 -63 -131 -56 -150 68
-193 78 -27 90 -19 158 114 31 61 79 144 105 185 155 242 402 479 663 635 87
51 91 65 53 151 -50 109 -68 115 -175 53z"/>
<path d="M2991 7061 c-18 -18 -21 -33 -21 -95 0 -105 7 -111 150 -132 258 -37
490 -132 690 -283 133 -100 134 -100 207 -25 48 49 54 60 51 92 -3 32 -12 43
-89 102 -263 199 -586 327 -895 356 -64 6 -73 5 -93 -15z"/>
<path d="M1990 6824 c-286 -178 -546 -469 -666 -748 -34 -77 -20 -98 89 -135
77 -27 93 -18 140 73 114 223 315 448 517 582 58 38 108 74 112 79 14 19 8 54
-19 112 -46 99 -66 103 -173 37z"/>
<path d="M2991 6621 c-18 -18 -21 -34 -21 -101 0 -97 3 -100 140 -124 135 -24
279 -84 405 -168 78 -52 111 -69 128 -64 27 6 112 93 121 122 9 31 -30 73
-127 138 -174 115 -373 188 -569 211 -49 5 -59 4 -77 -14z"/>
<path d="M5419 6292 c-37 -19 -64 -43 -86 -76 -29 -42 -33 -57 -33 -113 0
-119 46 -170 197 -218 104 -32 127 -51 126 -99 -1 -49 -25 -74 -79 -82 -36 -5
-55 -1 -112 26 -38 18 -78 30 -88 28 -10 -2 -31 -22 -47 -46 -27 -40 -28 -44
-13 -61 10 -11 45 -32 79 -47 54 -26 74 -29 157 -29 78 0 102 4 135 22 51 27
89 68 109 117 20 48 21 148 2 185 -21 39 -77 87 -123 102 -141 48 -158 56
-176 81 -18 24 -18 30 -7 58 23 56 92 65 179 25 30 -14 60 -24 67 -21 7 3 25
26 40 52 l28 47 -30 24 c-41 33 -116 53 -200 53 -59 0 -81 -5 -125 -28z"/>
<path d="M4797 6298 c-3 -7 -64 -166 -137 -353 -73 -187 -134 -346 -137 -352
-4 -10 15 -13 75 -13 92 0 94 1 127 93 l23 62 142 0 143 0 24 -65 c14 -36 29
-70 34 -77 6 -6 45 -13 90 -15 67 -2 79 -1 76 12 -4 14 -226 589 -262 678
l-17 42 -88 0 c-61 0 -89 -4 -93 -12z m142 -280 c25 -73 46 -139 49 -145 3
-10 -21 -13 -98 -13 -78 0 -101 3 -97 13 2 6 24 72 48 145 24 72 46 132 49
132 3 0 25 -60 49 -132z"/>
<path d="M5830 6245 l0 -65 105 0 105 0 0 -300 0 -300 85 0 85 0 0 300 0 300
105 0 105 0 0 65 0 65 -295 0 -295 0 0 -65z"/>
<path d="M6566 6133 c-38 -98 -88 -230 -113 -293 -24 -63 -57 -148 -73 -187
l-29 -73 77 0 c42 0 83 4 90 8 10 7 62 131 62 148 0 2 65 4 144 4 l145 0 22
-70 c12 -38 27 -74 33 -79 6 -5 46 -11 89 -13 l78 -3 -6 25 c-4 13 -27 76 -52
140 -25 63 -55 142 -68 175 -38 100 -107 277 -130 335 l-21 55 -90 3 -90 3
-68 -178z m208 -122 c25 -74 46 -138 46 -143 0 -4 -45 -8 -99 -8 l-100 0 45
133 c54 163 54 161 59 156 2 -3 24 -65 49 -138z"/>
<path d="M7160 5946 l0 -364 70 -4 70 -3 0 228 c0 130 4 227 9 227 5 0 81 -91
169 -202 212 -268 191 -248 262 -248 l60 0 0 365 0 365 -72 0 -73 0 3 -232 c3
-232 3 -233 -17 -213 -18 19 -82 99 -272 343 l-80 102 -65 0 -64 0 0 -364z"/>
<path d="M8142 6293 c-6 -10 -26 -63 -47 -118 -20 -55 -79 -209 -131 -342 -52
-133 -94 -244 -94 -248 0 -11 158 -5 168 8 5 6 20 42 33 80 l23 68 144 -3 144
-3 23 -69 c13 -38 29 -72 37 -77 7 -5 47 -9 89 -9 l77 0 -141 365 -141 365
-88 0 c-73 0 -89 -3 -96 -17z m111 -175 c5 -22 67 -202 82 -240 7 -16 -2 -18
-94 -18 -56 0 -101 3 -101 8 0 21 94 281 100 277 4 -3 10 -15 13 -27z"/>
<path d="M8870 5945 l0 -365 85 0 85 0 0 365 0 365 -85 0 -85 0 0 -365z"/>
<path d="M9130 6245 l0 -65 105 0 105 0 0 -300 0 -300 85 0 85 0 0 300 0 300
105 0 105 0 0 65 0 65 -295 0 -295 0 0 -65z"/>
<path d="M2758 5969 c-21 -5 -66 -20 -100 -35 -425 -179 -534 -728 -208 -1055
41 -41 100 -89 130 -106 328 -185 742 -61 904 270 84 169 95 332 36 507 -65
195 -233 352 -438 411 -72 21 -253 25 -324 8z"/>
<path d="M1671 5160 c-18 -4 -38 -14 -43 -22 -15 -21 -2 -106 31 -206 61 -184
132 -310 256 -454 68 -78 91 -94 123 -83 24 8 112 122 112 146 0 11 -24 45
-53 77 -119 129 -204 291 -243 462 -10 47 -22 74 -34 80 -22 12 -100 12 -149
0z"/>
<path d="M1255 5111 c-11 -5 -23 -7 -27 -4 -5 2 -8 -1 -8 -7 0 -6 -4 -9 -9 -6
-5 3 -14 -1 -21 -9 -9 -11 -6 -39 16 -131 32 -136 42 -147 122 -125 80 21 107
42 106 82 -1 49 -36 193 -48 201 -14 10 -106 9 -131 -1z"/>
<path d="M8507 5085 c-88 -33 -137 -98 -144 -190 -10 -122 40 -180 196 -231
127 -40 161 -88 107 -151 -22 -25 -31 -28 -83 -27 -45 0 -67 6 -100 27 -63 40
-87 36 -123 -20 l-30 -48 23 -19 c72 -62 235 -95 323 -66 110 36 164 112 164
230 0 116 -40 160 -190 209 -101 33 -130 54 -130 95 0 73 81 96 179 51 30 -14
62 -23 71 -20 10 3 28 25 41 49 27 52 22 63 -49 96 -60 29 -198 37 -255 15z"/>
<path d="M4540 4842 c0 -296 6 -328 78 -401 67 -69 139 -94 252 -89 100 5 159
28 215 83 75 76 80 97 83 393 l3 262 -85 0 -86 0 0 -240 c0 -260 -4 -283 -54
-329 -38 -35 -122 -41 -169 -12 -63 39 -67 59 -67 335 l0 246 -85 0 -85 0 0
-248z"/>
<path d="M5310 4720 l0 -370 70 0 70 0 0 230 c0 127 4 230 8 230 9 0 46 -44
236 -287 123 -157 128 -162 170 -168 88 -14 81 -47 84 368 l2 367 -75 0 -76 0
3 -225 c2 -142 -1 -224 -7 -222 -5 2 -87 102 -183 223 l-173 219 -65 3 -64 3
0 -371z"/>
<path d="M6100 4720 l0 -371 83 3 82 3 3 368 2 367 -85 0 -85 0 0 -370z"/>
<path d="M6335 5078 c3 -7 70 -173 148 -368 l143 -355 70 -3 c49 -2 74 1 81
10 8 10 232 561 288 711 6 15 -1 17 -71 17 -44 0 -85 -4 -93 -9 -12 -8 -125
-306 -173 -459 -11 -35 -24 -60 -28 -55 -3 4 -44 114 -90 243 -45 129 -89 245
-97 258 -12 20 -21 22 -98 22 -63 0 -83 -3 -80 -12z"/>
<path d="M7140 4720 l0 -370 233 2 232 3 0 65 0 65 -152 3 -153 3 0 84 0 84
118 3 117 3 3 62 3 62 -118 3 -118 3 0 85 0 85 153 3 152 3 0 59 0 60 -235 0
-235 0 0 -370z"/>
<path d="M7720 4720 l0 -371 83 3 82 3 3 138 3 137 34 0 c40 0 55 -18 134
-156 28 -51 58 -98 67 -105 18 -15 199 -27 193 -13 -19 45 -175 286 -190 295
-19 10 -17 13 24 39 67 42 97 100 97 186 0 95 -25 138 -104 179 -59 30 -61 30
-243 33 l-183 3 0 -371z m304 236 c44 -18 66 -51 66 -98 0 -70 -67 -117 -167
-118 l-33 0 0 115 0 115 50 0 c28 0 66 -6 84 -14z"/>
<path d="M8952 4723 l3 -368 83 -3 82 -3 0 371 0 370 -85 0 -85 0 2 -367z"/>
<path d="M9210 5025 l0 -65 105 0 105 0 2 -302 3 -303 80 0 80 0 3 302 2 302
103 3 102 3 5 60 5 60 59 -100 c33 -55 85 -144 117 -197 94 -157 89 -141 89
-298 l0 -140 85 0 85 0 0 143 0 142 49 85 c26 47 84 147 129 224 45 76 82 140
82 142 0 2 -38 4 -85 4 -69 0 -88 -3 -100 -17 -8 -10 -46 -82 -84 -161 -38
-79 -72 -143 -76 -143 -4 0 -41 69 -82 153 -41 84 -80 156 -86 160 -7 4 -184
8 -394 8 l-383 0 0 -65z"/>
<path d="M412 5051 c-84 -8 -105 -31 -96 -105 11 -87 42 -237 69 -331 121
-422 343 -805 650 -1120 127 -131 138 -133 214 -47 72 82 70 99 -23 193 -356
358 -584 801 -670 1298 -19 114 -31 122 -144 112z"/>
<path d="M928 5010 c-20 -9 -51 -20 -70 -24 -77 -16 -88 -19 -93 -26 -7 -12
19 -153 42 -225 25 -81 47 -89 136 -50 100 44 98 23 28 317 l-6 26 -37 -18z"/>
<path d="M1395 4716 c-34 -13 -68 -34 -79 -49 l-20 -27 48 -95 c26 -53 79
-144 119 -203 126 -189 393 -437 574 -531 41 -22 48 -23 71 -10 29 16 81 111
82 150 0 32 -14 50 -65 79 -229 134 -458 385 -588 646 -36 72 -49 76 -142 40z"/>
<path d="M3567 4463 c-47 -33 -49 -67 -6 -141 43 -76 65 -83 129 -42 86 55 91
88 22 160 -57 59 -88 64 -145 23z"/>
<path d="M2249 4432 c-22 -10 -87 -85 -97 -113 -6 -14 -6 -32 0 -44 14 -30 90
-75 127 -75 30 0 34 5 62 65 40 88 38 107 -13 144 -43 32 -52 34 -79 23z"/>
<path d="M3270 4310 c-126 -47 -241 -63 -410 -58 -81 3 -155 1 -164 -4 -19
-11 -59 -142 -51 -169 4 -11 18 -27 33 -37 22 -15 53 -17 217 -17 229 0 336
19 503 87 106 44 112 78 33 186 -37 51 -53 52 -161 12z"/>
<path d="M3828 4123 c-105 -79 -109 -95 -50 -183 32 -48 42 -55 74 -58 32 -3
46 5 120 64 95 77 98 80 98 114 -1 41 -93 131 -135 130 -11 -1 -59 -31 -107
-67z"/>
<path d="M1253 4091 c-108 -71 -103 -86 81 -278 95 -100 120 -106 177 -45 43
45 69 82 69 99 0 12 -170 209 -212 246 -29 25 -47 22 -115 -22z"/>
<path d="M3077 3816 c-87 -14 -97 -27 -97 -121 0 -108 21 -119 183 -94 110 17
122 37 91 147 -24 87 -36 91 -177 68z"/>
<path d="M4602 3703 c-40 -19 -66 -55 -81 -108 -12 -43 -71 -98 -221 -205
-139 -99 -139 -99 -84 -193 41 -70 48 -77 85 -77 37 0 276 165 357 247 13 13
35 23 51 23 63 0 141 91 141 165 0 45 -40 116 -79 142 -41 28 -120 31 -169 6z"/>
<path d="M3766 3572 c-5 -9 -94 -48 -189 -82 -82 -31 -92 -50 -71 -135 21 -84
44 -110 88 -101 40 8 176 61 241 93 66 33 85 51 85 80 0 24 -39 101 -68 136
-15 17 -76 24 -86 9z"/>
<path d="M1415 3430 c-22 -8 -97 -94 -108 -123 -4 -9 -2 -27 4 -40 12 -27 124
-108 267 -194 86 -52 113 -63 142 -61 32 3 38 8 67 68 53 105 49 114 -77 185
-47 26 -121 73 -165 104 -93 66 -103 71 -130 61z"/>
<path d="M2467 3393 c-8 -10 -23 -47 -32 -82 -19 -75 -11 -105 32 -122 39 -15
217 -39 290 -39 81 0 93 16 93 117 0 68 -13 103 -39 103 -5 0 -75 9 -156 20
-178 24 -168 24 -188 3z"/>
<path d="M3938 3180 c-186 -97 -461 -178 -722 -215 -208 -29 -578 -17 -774 25
-45 10 -56 9 -77 -4 -39 -25 -69 -165 -43 -199 43 -57 577 -98 866 -66 279 30
574 113 837 233 94 44 115 61 115 94 0 27 -54 130 -78 150 -25 19 -62 14 -124
-18z"/>
</g>
</svg>
